<svg width="32" height="32" viewBox="0 0 32 32" fill="none" xmlns="http://www.w3.org/2000/svg">
<path d="M32.001 16.4446V14.6668C32.001 12.9512 30.6054 11.5557 28.8899 11.5557H20.8899C19.1743 11.5557 17.7788 12.9512 17.7788 14.6668V16.4446C17.7788 16.6899 17.8143 16.9246 17.8676 17.1521C16.7708 17.6339 16.001 18.7272 16.001 20.0001V21.7779C16.001 23.0508 16.7708 24.1441 17.8676 24.6259C17.8143 24.8534 17.7788 25.0899 17.7788 25.3334V27.1112C17.7788 28.8268 19.1743 30.2223 20.8899 30.2223H28.8899C30.6054 30.2223 32.001 28.8268 32.001 27.1112V25.3334C32.001 24.0606 31.2312 22.9672 30.1343 22.4854C30.1876 22.2579 30.2232 22.0214 30.2232 21.7779V20.0001C30.2232 19.7548 30.1876 19.5201 30.1343 19.2926C31.2312 18.8108 32.001 17.7174 32.001 16.4446ZM20.4454 14.6668C20.4454 14.4214 20.6445 14.2223 20.8899 14.2223H28.8899C29.1352 14.2223 29.3343 14.4214 29.3343 14.6668V16.4446C29.3343 16.6899 29.1352 16.889 28.8899 16.889H20.8899C20.6445 16.889 20.4454 16.6899 20.4454 16.4446V14.6668ZM29.3343 27.1112C29.3343 27.3566 29.1352 27.5557 28.8899 27.5557H20.8899C20.6445 27.5557 20.4454 27.3566 20.4454 27.1112V25.3334C20.4454 25.0881 20.6445 24.889 20.8899 24.889H28.8899C29.1352 24.889 29.3343 25.0881 29.3343 25.3334V27.1112Z" fill="#F3F3F3"/>
<path d="M25.3344 1.77783H6.6677C3.96725 1.77783 1.77881 3.96628 1.77881 6.66672V18.2223C1.77881 20.9227 3.96725 23.1112 6.6677 23.1112H12.8899C13.6259 23.1112 14.2233 22.5138 14.2233 21.7778C14.2233 21.0418 13.6259 20.4445 12.8899 20.4445H9.6437C9.11214 17.8365 7.05348 15.7778 4.44548 15.2463V9.6445C7.05348 9.11294 9.11214 7.05428 9.6437 4.44628H22.3566C22.9788 7.49694 25.6899 9.79561 28.9237 9.77961C29.6437 9.77605 30.2233 9.16628 30.2233 8.44628V6.6685C30.2233 3.96805 28.0348 1.77961 25.3344 1.77961V1.77783Z" fill="#F3F3F3"/>
<path d="M15.1123 15.8348V14.6668C15.1123 11.9539 16.9985 9.68722 19.523 9.07033C18.6323 8.14055 17.3861 7.55566 16.0012 7.55566C13.3043 7.55566 11.1123 9.74766 11.1123 12.4446C11.1123 14.5086 12.4012 16.2686 14.2127 16.9832C14.4687 16.5672 14.7585 16.1743 15.1123 15.8348Z" fill="#F3F3F3"/>
</svg>
