<svg width="32" height="32" viewBox="0 0 32 32" fill="none" xmlns="http://www.w3.org/2000/svg">
<path d="M8.43261 4.43036L6.75083 3.87036L6.18905 2.18681C6.00772 1.64281 5.10639 1.64281 4.92505 2.18681L4.36328 3.87036L2.6815 4.43036C2.4095 4.52103 2.22461 4.77525 2.22461 5.06325C2.22461 5.35125 2.4095 5.60548 2.6815 5.69614L4.36328 6.25614L4.92505 7.9397C5.01572 8.2117 5.26994 8.39481 5.55616 8.39481C5.84239 8.39481 6.09839 8.20992 6.18728 7.9397L6.74905 6.25614L8.43083 5.69614C8.70283 5.60548 8.88772 5.35125 8.88772 5.06325C8.88772 4.77525 8.70461 4.52103 8.43261 4.43036Z" fill="#F3F3F3"/>
<path d="M16.0008 24.825C16.0008 23.2908 16.9786 21.9362 18.4346 21.4526L19.4123 21.1255L19.7395 20.1459C20.2141 18.7273 21.5688 17.7779 23.1119 17.7779C23.7501 17.7779 24.3368 17.9735 24.8612 18.2633L29.8195 13.4313C30.1839 13.0775 30.3137 12.5459 30.1572 12.0642C30.0008 11.5824 29.583 11.2304 29.0817 11.1575L20.8683 9.9646L17.1955 2.52105C16.7475 1.61082 15.2523 1.61082 14.8043 2.52105L11.1315 9.96282L2.91813 11.1557C2.41679 11.2286 1.99901 11.5806 1.84257 12.0624C1.68613 12.5442 1.8159 13.0757 2.18035 13.4295L8.12346 19.2215L6.71901 27.401C6.63368 27.9024 6.83813 28.4073 7.24879 28.7059C7.66124 29.0028 8.20346 29.0437 8.65324 28.8073L15.999 24.9442L16.0203 24.9548C16.0203 24.9104 15.999 24.8695 15.999 24.825H16.0008Z" fill="#F3F3F3"/>
<path d="M26.9482 23.9826L24.7029 23.2342L23.9544 20.9888C23.7109 20.2635 22.5109 20.2635 22.2673 20.9888L21.5189 23.2342L19.2735 23.9826C18.9109 24.1035 18.6655 24.443 18.6655 24.8253C18.6655 25.2075 18.9109 25.547 19.2735 25.6679L21.5189 26.4164L22.2673 28.6617C22.3882 29.0244 22.7295 29.2697 23.1118 29.2697C23.494 29.2697 23.8335 29.0244 23.9562 28.6617L24.7046 26.4164L26.95 25.6679C27.3126 25.547 27.558 25.2075 27.558 24.8253C27.558 24.443 27.3126 24.1035 26.95 23.9826H26.9482Z" fill="#F3F3F3"/>
<path d="M25.3343 7.11149C26.0707 7.11149 26.6676 6.51454 26.6676 5.77816C26.6676 5.04178 26.0707 4.44482 25.3343 4.44482C24.5979 4.44482 24.001 5.04178 24.001 5.77816C24.001 6.51454 24.5979 7.11149 25.3343 7.11149Z" fill="#F3F3F3"/>
</svg>
