<svg width="32" height="32" viewBox="0 0 32 32" fill="none" xmlns="http://www.w3.org/2000/svg">
<path d="M28.9378 9.97305L27.896 8.86372C27.3911 8.32505 26.5449 8.30194 26.0116 8.80505C25.4818 9.30283 25.4551 10.1277 25.9387 10.6646H22.0436L20.0044 6.75349C20.2711 6.50994 20.4453 6.16683 20.4453 5.77572C20.4453 5.03972 19.848 4.44238 19.112 4.44238H9.62044C8.75822 4.44238 7.92622 4.80149 7.336 5.42727L3.064 9.97305C2.03111 11.0717 1.93866 12.741 2.84533 13.9446L13.4996 28.0886C14.0951 28.8797 15.0071 29.333 16.0009 29.333C16.9947 29.333 17.9067 28.8797 18.5022 28.0886L29.1564 13.9446C30.0631 12.741 29.9707 11.0699 28.9378 9.97305ZM12.5627 13.333H19.4373L15.9991 24.7197L12.5627 13.333ZM9.27733 7.2566C9.36444 7.16416 9.48889 7.11083 9.61866 7.11083H11.8107L9.95822 10.6664H6.072L9.27733 7.2566Z" fill="#F3F3F3"/>
<path d="M27.9888 3.5412L26.307 2.9812L25.7452 1.29765C25.5639 0.753648 24.6625 0.753648 24.4812 1.29765L23.9194 2.9812L22.2377 3.5412C21.9657 3.63187 21.7808 3.88609 21.7808 4.17409C21.7808 4.46209 21.9657 4.71632 22.2377 4.80698L23.9194 5.36698L24.4812 7.05054C24.5719 7.32254 24.8261 7.50565 25.1123 7.50565C25.3985 7.50565 25.6545 7.32076 25.7434 7.05054L26.3052 5.36698L27.987 4.80698C28.259 4.71632 28.4439 4.46209 28.4439 4.17409C28.4439 3.88609 28.259 3.63187 27.987 3.5412H27.9888Z" fill="#F3F3F3"/>
<path d="M3.11214 5.33317C3.84852 5.33317 4.44548 4.73622 4.44548 3.99984C4.44548 3.26346 3.84852 2.6665 3.11214 2.6665C2.37576 2.6665 1.77881 3.26346 1.77881 3.99984C1.77881 4.73622 2.37576 5.33317 3.11214 5.33317Z" fill="#F3F3F3"/>
</svg>
