<svg width="32" height="32" viewBox="0 0 32 32" fill="none" xmlns="http://www.w3.org/2000/svg">
<path d="M25.7779 14.6668H16.7699L12.265 6.86593C11.897 6.22771 11.0792 6.01082 10.4445 6.37882C9.80632 6.74682 9.58943 7.56282 9.95743 8.19927L14.4623 16.0002L9.95743 23.8028C9.58943 24.441 9.8081 25.2553 10.4445 25.6233C10.6543 25.7442 10.8837 25.8028 11.1112 25.8028C11.5717 25.8028 12.0197 25.5646 12.2668 25.1362L16.7717 17.3335H25.7797C26.5157 17.3335 27.113 16.7362 27.113 16.0002C27.113 15.2642 26.5157 14.6668 25.7797 14.6668H25.7779Z" fill="#F3F3F3"/>
<path d="M28.8889 14.6667H27.0241C26.8961 13.6054 26.6241 12.5885 26.2187 11.6409L27.8294 10.7112C28.4676 10.3432 28.6845 9.52717 28.3165 8.89072C27.9485 8.2525 27.1325 8.03561 26.4961 8.40361L24.8729 9.3405C24.2436 8.50317 23.4987 7.76005 22.6632 7.13072L23.6001 5.50583C23.9681 4.86761 23.7494 4.05339 23.1129 3.68539C22.4765 3.31561 21.6605 3.53428 21.2925 4.1725L20.3627 5.78317C19.4152 5.37605 18.3983 5.10583 17.3369 4.97783V3.11117C17.3369 2.37517 16.7396 1.77783 16.0036 1.77783C15.2676 1.77783 14.6703 2.37517 14.6703 3.11117V4.97605C13.6089 5.10405 12.5921 5.37605 11.6445 5.78139L10.7147 4.17072C10.3449 3.5325 9.52894 3.31383 8.89428 3.68361C8.25605 4.05161 8.03917 4.86761 8.40717 5.50405L9.34405 7.12894C8.50672 7.75828 7.76361 8.50139 7.13428 9.33872L5.51117 8.40183C4.8765 8.03383 4.05872 8.25072 3.69072 8.88894C3.32272 9.52717 3.54139 10.3414 4.17783 10.7094L5.7885 11.6392C5.38317 12.5867 5.11117 13.6036 4.98317 14.6649H3.11117C2.37517 14.6649 1.77783 15.2623 1.77783 15.9983C1.77783 16.7343 2.37517 17.3316 3.11117 17.3316H4.97605C5.10405 18.3929 5.37605 19.4098 5.78139 20.3574L4.17072 21.2872C3.5325 21.6552 3.31561 22.4712 3.68361 23.1076C3.93072 23.5361 4.37872 23.7743 4.83917 23.7743C5.06494 23.7743 5.29428 23.7174 5.50583 23.5947L7.12894 22.6578C7.75828 23.4952 8.50317 24.2383 9.33872 24.8676L8.40183 26.4925C8.03383 27.1307 8.2525 27.9449 8.88894 28.3129C9.09872 28.4338 9.32805 28.4925 9.55561 28.4925C10.0161 28.4925 10.4641 28.2543 10.7112 27.8258L11.6409 26.2152C12.5885 26.6223 13.6054 26.8925 14.6667 27.0205V28.8854C14.6667 29.6214 15.2641 30.2187 16.0001 30.2187C16.7361 30.2187 17.3334 29.6214 17.3334 28.8854V27.0205C18.3947 26.8925 19.4116 26.6205 20.3592 26.2152L21.2889 27.8258C21.5361 28.2543 21.9841 28.4925 22.4445 28.4925C22.6703 28.4925 22.8996 28.4356 23.1112 28.3129C23.7494 27.9449 23.9663 27.1289 23.5983 26.4925L22.6614 24.8676C23.4987 24.2383 24.2418 23.4952 24.8712 22.6578L26.4943 23.5947C26.7041 23.7156 26.9334 23.7743 27.1609 23.7743C27.6214 23.7743 28.0694 23.5361 28.3165 23.1076C28.6845 22.4694 28.4658 21.6552 27.8294 21.2872L26.2187 20.3574C26.6241 19.4098 26.8961 18.3929 27.0241 17.3316H28.8889C29.6249 17.3316 30.2223 16.7343 30.2223 15.9983C30.2223 15.2623 29.6249 14.6649 28.8889 14.6649V14.6667ZM16.0001 24.4445C11.3441 24.4445 7.55561 20.6561 7.55561 16.0001C7.55561 11.3441 11.3441 7.55561 16.0001 7.55561C20.6561 7.55561 24.4445 11.3441 24.4445 16.0001C24.4445 20.6561 20.6561 24.4445 16.0001 24.4445Z" fill="#F3F3F3"/>
</svg>
