<svg width="24" height="24" viewBox="0 0 24 24" fill="none" xmlns="http://www.w3.org/2000/svg">
<path fill-rule="evenodd" clip-rule="evenodd" d="M4 7C4 5.34315 5.34315 4 7 4H20C21.6569 4 23 5.34315 23 7L23 9H20C18.3431 9 17 10.3431 17 12C17 13.6569 18.3431 15 20 15H23L23 17C23 18.6569 21.6569 20 20 20H9.58396C9.85155 19.3875 10 18.7111 10 18C10 15.2386 7.76142 13 5 13C4.65753 13 4.32311 13.0344 4 13.1V7Z" fill="white"/>
<path fill-rule="evenodd" clip-rule="evenodd" d="M5 22C7.20914 22 9 20.2091 9 18C9 15.7909 7.20914 14 5 14C2.79086 14 1 15.7909 1 18C1 20.2091 2.79086 22 5 22ZM5.42857 18.4286H7.57143C7.68509 18.4286 7.7941 18.3834 7.87448 18.303C7.95485 18.2227 8 18.1137 8 18C8 17.8863 7.95485 17.7773 7.87448 17.697C7.7941 17.6166 7.68509 17.5714 7.57143 17.5714H5.42857V15.4286C5.42857 15.3149 5.38342 15.2059 5.30305 15.1255C5.22267 15.0452 5.11366 15 5 15C4.88634 15 4.77733 15.0452 4.69695 15.1255C4.61658 15.2059 4.57143 15.3149 4.57143 15.4286V17.5714H2.42857C2.31491 17.5714 2.2059 17.6166 2.12553 17.697C2.04515 17.7773 2 17.8863 2 18C2 18.1137 2.04515 18.2227 2.12553 18.303C2.2059 18.3834 2.31491 18.4286 2.42857 18.4286H4.57143V20.5714C4.57143 20.6851 4.61658 20.7941 4.69695 20.8745C4.77733 20.9548 4.88634 21 5 21C5.11366 21 5.22267 20.9548 5.30305 20.8745C5.38342 20.7941 5.42857 20.6851 5.42857 20.5714V18.4286Z" fill="white"/>
<path d="M18 12C18 10.8954 18.8954 10 20 10H23V14H20C18.8954 14 18 13.1046 18 12Z" fill="white"/>
</svg>
